<svg xmlns="http://www.w3.org/2000/svg" id="Layer_2" data-name="Layer 2" viewBox="0 0 87.41 86.61"><defs><style>      .cls-1 {        fill: #fff;      }      .cls-1, .cls-2 {        stroke-width: 0px;      }      .cls-2 {        fill: #feb45c;      }    </style></defs><g id="Layer_1-2" data-name="Layer 1"><g><path class="cls-2" d="M10.75,68.73c.48-1.99-.52-3.2-2.95-3.78-3.2-.76-3.43-1.32-2.24-4.55.76-2.06.42-3.39-1.66-4.47-3.23-1.67-3.3-2.11-1.26-5.26,1.21-1.86,1.09-3.22-.63-4.74-2.67-2.37-2.68-2.9-.02-5.26,1.82-1.61,1.84-3.02.49-4.92-1.91-2.7-1.75-3.36,1.26-4.9,2.25-1.15,2.61-2.64,1.75-4.88-1.09-2.86-.74-3.4,2.15-4.25,3.2-.94,3.33-1.14,3.05-4.53-.24-2.92.06-3.26,3.01-3.42,3.43-.18,3.64-.36,4.19-3.83.42-2.6,1.1-3.09,3.7-2.63q3.66.64,5.1-2.74c.97-2.27,1.78-2.56,4.08-1.47q3.36,1.59,5.63-1.28c1.77-2.25,2.39-2.3,4.62-.43,2.46,2.06,2.93,2.07,5.28.11,2.5-2.09,3.01-2.04,4.92.51,2.03,2.71,2.13,2.73,5.27,1.19,2.57-1.25,3.17-1.03,4.35,1.62,1.43,3.2,1.49,3.23,5.05,2.55,2.63-.5,3.26-.05,3.62,2.6.43,3.13.95,3.62,4.05,3.8,3.12.18,3.25.32,3.17,3.32q-.1,3.64,3.49,4.77c2.52.79,2.78,1.29,1.99,3.8q-1.13,3.58,2.01,5.42c2.24,1.32,2.43,2,1.12,4.15q-1.98,3.25.69,5.95c1.87,1.89,1.85,2.67-.11,4.5q-2.59,2.41-.78,5.32c1.63,2.64,1.6,3.3-1.1,4.65-2.39,1.19-3.03,2.55-1.97,5.1,1.12,2.69.56,3.59-2.32,4.21-2.37.5-3.33,1.57-3.09,4.1.35,3.54-.04,3.95-3.56,3.87-2.42-.05-3.44,1.19-3.51,3.24-.11,3.35-1.39,3.69-4.14,2.93-2.28-.63-3.53,0-4.44,2.19-1.46,3.5-1.74,3.62-5.08,1.85-2.11-1.12-3.31-.55-4.54,1.22-1.95,2.8-2.59,2.9-5.04.74-1.77-1.57-3.2-1.84-5.11-.05-2.41,2.26-3.15,2.11-5.07-.59-1.35-1.89-2.74-2.29-4.85-1.21-3.06,1.56-3.72,1.29-4.9-1.97-.78-2.17-2.02-2.78-4.2-2.25-3.41.83-3.94.48-4.35-2.89-.28-2.32-1.3-3.29-3.72-3.22-3.32.1-3.69-.44-3.41-4.18ZM43.53,80.3c19.91.25,36.84-15.56,37.31-35.96.49-21.19-16.04-37.98-36.94-38.05-20.74-.07-36.99,16.08-37.31,36.24-.35,21.87,17.16,37.86,36.94,37.77Z"></path><circle class="cls-2" cx="43.7" cy="43.31" r="34.8"></circle><g><path class="cls-1" d="M16.77,49.06v-1.95l6.92-8.2c.51-.59.9-1.26.9-1.9,0-.9-.77-1.67-2.11-1.67s-2.19,1-2.39,2.34l-3.29-.57c.51-3.21,2.67-5.22,5.89-5.22,2.98,0,5.5,2.11,5.5,5.12,0,1.65-.75,3.11-1.77,4.27l-3.88,4.4h5.19v3.39h-10.95Z"></path><path class="cls-1" d="M36.85,40.37c-1.03,0-2.75.33-3.7,1.85l-1.98-1.03,1.39-8.97h9.87v3.29h-7.02l-.44,2.73c.69-.59,1.98-.87,3.09-.87,3.01,0,5.5,2.01,5.5,5.76s-2.7,6.2-6.94,6.2c-2.37,0-4.65-1.36-5.96-3.39l3.03-1.95c.69,1.03,1.88,1.75,2.93,1.75,1.95,0,3.34-1.26,3.34-2.6,0-1.88-1.36-2.75-3.11-2.75Z"></path><path class="cls-1" d="M52.55,31.89c4.91,0,6.25,3.88,6.25,8.74s-1.34,8.69-6.25,8.69-6.3-3.88-6.3-8.69,1.39-8.74,6.3-8.74ZM52.55,45.82c2.03,0,2.65-2.37,2.65-5.19s-.62-5.25-2.65-5.25-2.7,2.39-2.7,5.25.64,5.19,2.7,5.19Z"></path><path class="cls-1" d="M68.13,47.65h-2.62v-3.99h-3.96v-2.62h3.96v-3.96h2.62v3.96h3.99v2.62h-3.99v3.99Z"></path></g><g><path class="cls-1" d="M19.13,50.73v3.38h-.72v-1.36h-1.2v1.36h-.71v-3.38h.71v1.38h1.2v-1.38h.72Z"></path><path class="cls-1" d="M22.84,53.42c-.29.45-.81.74-1.42.74-.96,0-1.69-.78-1.69-1.73s.73-1.73,1.69-1.73c.61,0,1.11.28,1.41.72l-.58.4c-.18-.27-.47-.44-.82-.44-.56,0-.97.47-.97,1.06s.41,1.05.97,1.05c.35,0,.66-.19.84-.47l.58.4Z"></path><path class="cls-1" d="M24.86,50.69c.96,0,1.71.78,1.71,1.73s-.75,1.73-1.71,1.73-1.71-.78-1.71-1.73.75-1.73,1.71-1.73ZM24.86,53.45c.56,0,1-.46,1-1.02s-.44-1.02-1-1.02-.99.46-.99,1.02.43,1.02.99,1.02Z"></path><path class="cls-1" d="M27.66,53.17c-.69-.18-.69-.53-.69-.74,0-.34.41-.65.89-.65.45,0,.94.2.94.76h-.64c0-.17-.15-.2-.26-.2-.15,0-.24.07-.24.17,0,.07.06.14.2.17l.39.1c.55.16.62.51.62.67,0,.48-.51.71-.99.71s-.96-.28-.96-.79h.64c0,.13.15.26.34.26.15,0,.28-.07.28-.19,0-.1-.05-.15-.23-.2l-.3-.08Z"></path><path class="cls-1" d="M31.17,53.12c.01.22.18.41.5.41.29,0,.49-.14.49-.36,0-.15-.07-.28-.41-.38l-.41-.11c-.74-.24-.87-.66-.87-.97,0-.6.51-1.01,1.16-1.01s1.14.39,1.14,1.03h-.71c0-.23-.15-.38-.44-.38-.25,0-.44.14-.44.34,0,.09.03.25.36.34l.4.13c.82.23.94.7.93,1.02-.01.67-.61.99-1.21.99-.73,0-1.22-.44-1.22-1.04h.72Z"></path><path class="cls-1" d="M35.5,53.69c-.23.34-.65.47-1.04.47-.65,0-1.2-.48-1.2-1.2s.54-1.19,1.2-1.19,1.17.48,1.17,1.21c0,.06,0,.15,0,.21h-1.68c.04.26.32.38.56.38.19,0,.39-.06.5-.22l.49.34ZM34.95,52.76c-.04-.28-.28-.39-.48-.39s-.46.1-.51.39h.99Z"></path><path class="cls-1" d="M36.78,54.11h-.68v-2.29h.68v.55c.12-.43.41-.6.65-.6.16,0,.28.03.39.08l-.12.61c-.12-.06-.23-.07-.35-.07-.39,0-.57.3-.57.91v.8Z"></path><path class="cls-1" d="M37.87,51.82h.73l.53,1.42.53-1.42h.73l-.97,2.29h-.58l-.96-2.29Z"></path><path class="cls-1" d="M42.77,53.69c-.23.34-.65.47-1.04.47-.65,0-1.2-.48-1.2-1.2s.54-1.19,1.2-1.19,1.17.48,1.17,1.21c0,.06,0,.15,0,.21h-1.68c.04.26.32.38.56.38.19,0,.39-.06.5-.22l.49.34ZM42.21,52.76c-.04-.28-.28-.39-.48-.39s-.46.1-.51.39h.99Z"></path><path class="cls-1" d="M45.01,54.11v-.28c-.11.21-.38.33-.67.33-.59,0-1.11-.46-1.11-1.19s.52-1.2,1.11-1.2c.29,0,.56.12.67.33v-1.52h.68v3.53h-.68ZM44.47,52.41c-.29,0-.53.21-.53.54s.24.55.53.55.53-.22.53-.55-.25-.54-.53-.54Z"></path><path class="cls-1" d="M50.13,54.11h-.64l-1.18-2.04v2.04h-.71v-3.38h.66l1.16,2.02v-2.02h.72v3.38Z"></path><path class="cls-1" d="M52.48,53.85c-.14.22-.49.3-.67.3-.58,0-1.17-.46-1.17-1.19s.58-1.19,1.17-1.19c.15,0,.48.05.67.3v-.25h.68v2.29h-.68v-.26ZM51.92,53.5c.28,0,.55-.2.55-.54s-.27-.54-.55-.54-.57.22-.57.54.28.54.57.54Z"></path><path class="cls-1" d="M55.15,51.82v.54h-.48v1.75h-.68v-1.75h-.42v-.54h.42v-.88h.68v.88h.48Z"></path><path class="cls-1" d="M55.91,50.58c.23,0,.42.17.42.4s-.18.4-.42.4-.43-.18-.43-.4.2-.4.43-.4ZM56.25,54.11h-.68v-2.29h.68v2.29Z"></path><path class="cls-1" d="M56.74,52.96c0-.73.53-1.19,1.19-1.19s1.19.46,1.19,1.19-.54,1.19-1.19,1.19-1.19-.47-1.19-1.19ZM58.44,52.96c0-.31-.23-.52-.52-.52s-.51.21-.51.52.24.52.51.52.52-.21.52-.52Z"></path><path class="cls-1" d="M60.28,54.11h-.68v-2.29h.68v.33c.12-.23.39-.38.66-.38.51,0,.84.32.84.97v1.37h-.68v-1.22c0-.31-.17-.46-.4-.46s-.42.12-.42.47v1.21Z"></path><path class="cls-1" d="M64.94,54.11h-.57l-.45-1.45-.43,1.45h-.57l-.83-2.29h.73l.41,1.36.4-1.36h.58l.4,1.36.41-1.36h.73l-.8,2.29Z"></path><path class="cls-1" d="M66.44,50.58c.23,0,.42.17.42.4s-.18.4-.42.4-.43-.18-.43-.4.2-.4.43-.4ZM66.78,54.11h-.68v-2.29h.68v2.29Z"></path><path class="cls-1" d="M69.05,54.11v-.28c-.11.21-.38.33-.67.33-.59,0-1.11-.46-1.11-1.19s.52-1.2,1.11-1.2c.29,0,.56.12.67.33v-1.52h.68v3.53h-.68ZM68.51,52.41c-.29,0-.53.21-.53.54s.24.55.53.55.53-.22.53-.55-.25-.54-.53-.54Z"></path><path class="cls-1" d="M72.46,53.69c-.23.34-.65.47-1.04.47-.65,0-1.2-.48-1.2-1.2s.54-1.19,1.2-1.19,1.17.48,1.17,1.21c0,.06,0,.15,0,.21h-1.68c.04.26.32.38.56.38.19,0,.39-.06.5-.22l.49.34ZM71.9,52.76c-.04-.28-.28-.39-.48-.39s-.46.1-.51.39h.99Z"></path></g></g></g></svg>